<svg xmlns="http://www.w3.org/2000/svg" width="1340" height="480" viewBox="0 0 670 240" fill="none" role="img" aria-label="Heir">
  <defs>
    <linearGradient id="cubeTop" x1="50" y1="10" x2="50" y2="45" gradientUnits="userSpaceOnUse">
      <stop stop-color="#F4C652"></stop>
      <stop offset="1" stop-color="#D99A1E"></stop>
    </linearGradient>
    <linearGradient id="cubeLeft" x1="15" y1="30" x2="50" y2="90" gradientUnits="userSpaceOnUse">
      <stop stop-color="#C8881A"></stop>
      <stop offset="1" stop-color="#3D2806"></stop>
    </linearGradient>
    <linearGradient id="cubeRight" x1="85" y1="30" x2="50" y2="90" gradientUnits="userSpaceOnUse">
      <stop stop-color="#A8730F"></stop>
      <stop offset="1" stop-color="#241804"></stop>
    </linearGradient>
  </defs>

  
  <g transform="translate(-6,20) scale(2)">
    <path d="M50 10 L85 30 L50 50 L15 30 Z" fill="url(#cubeTop)"></path>
    <path d="M15 30 L50 50 L50 90 L15 70 Z" fill="url(#cubeLeft)"></path>
    <path d="M85 30 L50 50 L50 90 L85 70 Z" fill="url(#cubeRight)"></path>
    <path d="M50 15 L50 45 M25 32 L45 44 M75 32 L55 44" stroke="#FBEFC9" stroke-width="2" stroke-linecap="round"></path>
    <circle cx="50" cy="50" r="6" fill="#FBEFC9"></circle>
  </g>

  
  <g transform="translate(211,197.75) scale(1.136)">
    <path fill="#C8881A" d="M55.20 0L4.40 0L4.40-2L8.40-3.60Q12.40-5 13.70-7.40Q15-9.80 15-13.60L15-13.60L15-118.20Q15-122.20 13.70-124.60Q12.40-127 8.40-128.40L8.40-128.40L4.40-130L4.40-132L55.20-132L55.20-130L51.80-128.60Q48-127.20 46.60-124.90Q45.20-122.60 45.20-118.60L45.20-118.60L45.20-70L93-70L93-118.60Q93-122.60 91.70-124.90Q90.40-127.20 86.40-128.60L86.40-128.60L82.80-130L82.80-132L133.80-132L133.80-130L129.80-128.40Q126-127 124.60-124.60Q123.20-122.20 123.20-118.20L123.20-118.20L123.20-13.60Q123.20-9.80 124.60-7.40Q126-5 129.80-3.60L129.80-3.60L133.80-2L133.80 0L82.80 0L82.80-2L86.40-3.20Q90.40-4.80 91.70-7.10Q93-9.40 93-13.40L93-13.40L93-66L45.20-66L45.20-13.40Q45.20-6 51.80-3.20L51.80-3.20L55.20-2L55.20 0ZM192.40-99.20L192.40-99.20Q205.40-99.20 214.60-93.90Q223.80-88.60 228.70-79.50Q233.60-70.40 233.60-58.80L233.60-58.80Q233.60-56.60 233.40-54.30Q233.20-52 232.60-50.20L232.60-50.20L173.00-50.20Q173.20-28.60 180.70-19.10Q188.20-9.60 203-9.60L203-9.60Q213-9.60 219.20-12.80Q225.40-16 230.80-22.20L230.80-22.20L232.80-20.40Q226.60-9.40 216.30-3.20Q206 3 191.60 3L191.60 3Q177.40 3 166.40-3.10Q155.40-9.20 149.20-20.60Q143.00-32 143.00-47.80L143.00-47.80Q143.00-64.20 150.20-75.70Q157.40-87.20 168.70-93.20Q180.00-99.20 192.40-99.20ZM191.80-95.20L191.80-95.20Q186.00-95.20 181.90-91.70Q177.80-88.20 175.50-79.30Q173.20-70.40 173.00-54.20L173.00-54.20L207.20-54.20Q209.20-76 205.60-85.60Q202.00-95.20 191.80-95.20ZM267.60-109.60L267.60-109.60Q260.80-109.60 256.10-113.90Q251.40-118.20 251.40-124.80L251.40-124.80Q251.40-131.60 256.10-135.80Q260.80-140 267.60-140L267.60-140Q274.40-140 279-135.80Q283.60-131.60 283.60-124.80L283.60-124.80Q283.60-118.20 279-113.90Q274.40-109.60 267.60-109.60ZM290.80 0L244.00 0L244.00-2L246.80-2.80Q250.80-4 252.30-6.40Q253.80-8.80 253.80-12.80L253.80-12.80L253.80-75.40Q253.80-79.60 252.30-81.70Q250.80-83.80 246.80-84.60L246.80-84.60L244.00-85.20L244.00-87.20L280.60-99L282.60-97L282-68.60L282-12.60Q282-8.60 283.50-6.20Q285-3.80 288.80-2.60L288.80-2.60L290.80-2L290.80 0ZM351.40 0L299.60 0L299.60-2L302.60-2.80Q306.60-4 308.10-6.40Q309.60-8.80 309.60-12.60L309.60-12.60L309.60-75.20Q309.60-79.60 308.10-81.70Q306.60-83.80 302.60-84.60L302.60-84.60L299.60-85.40L299.60-87.40L334-99L336-97L337.80-79.80L337.80-78.20Q340.60-83.80 345.10-88.50Q349.60-93.20 355.10-96.20Q360.60-99.20 366-99.20L366-99.20Q373.60-99.20 377.60-95Q381.60-90.80 381.60-84.40L381.60-84.40Q381.60-77.60 377.70-73.90Q373.80-70.20 368.40-70.20L368.40-70.20Q360-70.20 353.60-78.60L353.60-78.60L353.20-79Q351.20-81.80 348.60-82.10Q346-82.40 343.80-79.60L343.80-79.60Q341.80-77.80 340.50-75.30Q339.20-72.80 338-69.60L338-69.60L338-13.80Q338-5.80 345-3.80L345-3.80L351.40-2L351.40 0Z"></path>
  </g>
</svg>